<?xml version="1.0" encoding="UTF-8" standalone="no"?>
<!-- Groen Productions.com: #pg-GroenP, #pg-Ggroup, #pg-Pgroup, #pg-Roen, #pg-Roductions -->
<svg
   xmlns:dc="http://purl.org/dc/elements/1.1/"
   xmlns:cc="http://creativecommons.org/ns#"
   xmlns:rdf="http://www.w3.org/1999/02/22-rdf-syntax-ns#"
   xmlns:svg="http://www.w3.org/2000/svg"
   xmlns="http://www.w3.org/2000/svg"
   xmlns:sodipodi="http://sodipodi.sourceforge.net/DTD/sodipodi-0.dtd"
   xmlns:inkscape="http://www.inkscape.org/namespaces/inkscape"
   width="200"
   height="40"
   viewBox="0 0 160 32"
   xml:space="preserve"
   color-interpolation-filters="sRGB"
   id="pg-GroenP"
   version="1.1"
   inkscape:version="0.48.4 r9939"
   sodipodi:docname="GroenProductionsPath.svg"
   style="font-size:16px;fill:none;stroke-linecap:square;stroke-miterlimit:3;overflow:visible"><title
   id="title3009">Groen Productions</title><metadata
   id="metadata3119"><rdf:RDF><cc:Work
       rdf:about=""><dc:format>image/svg+xml</dc:format><dc:type
         rdf:resource="http://purl.org/dc/dcmitype/StillImage" /><dc:title>Groen Productions</dc:title><dc:creator><cc:Agent><dc:title>Groen</dc:title></cc:Agent></dc:creator></cc:Work></rdf:RDF></metadata>
   <defs
   id="defs3117" /><sodipodi:namedview
   pagecolor="#ffffff"
   bordercolor="#666666"
   borderopacity="1"
   objecttolerance="10"
   gridtolerance="10"
   guidetolerance="10"
   inkscape:pageopacity="0"
   inkscape:pageshadow="2"
   inkscape:window-width="640"
   inkscape:window-height="480"
   id="namedview3115"
   showgrid="false"
   showguides="true"
   inkscape:guide-bbox="true"
   inkscape:zoom="2.936"
   inkscape:cx="179.3"
   inkscape:cy="1.574"
   inkscape:current-layer="pg-GroenP"><sodipodi:guide
     orientation="0,1"
     position="0,1.882"
     id="guide3127" /><sodipodi:guide
     orientation="0,1"
     position="0,9.035"
     id="guide3001" /><sodipodi:guide
     orientation="0,1"
     position="0,23.97"
     id="guide3904" /></sodipodi:namedview>
<g
   style="fill:#002b0f;fill-opacity:1"
   id="pg-Roen"
   transform="translate(0.7705,0.0963)"><path
     d="M 66.21,14.74 C 66.5,13.96 66.89,13.38 67.37,13 67.85,12.63 68.44,12.44 69.15,12.44 69.53,12.44 69.91,12.49 70.28,12.58 70.65,12.67 71.02,12.8 71.38,12.98 L 70.4,15.28 C 70.17,15.11 69.91,14.99 69.64,14.91 69.37,14.83 69.07,14.79 68.74,14.79 67.84,14.79 67.19,15.15 66.8,15.87 66.41,16.6 66.21,17.81 66.21,19.51 L 66.21,24.71 63.5,24.71 63.5,12.83 66.21,12.83 z"
     id="path3004"
     inkscape:connector-curvature="0" /><path
     d="M 82.27,18.82 C 82.27,17.72 81.91,16.79 81.2,16.02 80.5,15.26 79.63,14.88 78.6,14.88 77.59,14.88 76.72,15.26 76.01,16.02 75.3,16.79 74.94,17.72 74.94,18.82 74.94,19.92 75.3,20.85 76.01,21.61 76.72,22.38 77.59,22.76 78.6,22.76 79.62,22.76 80.48,22.38 81.2,21.61 81.91,20.85 82.27,19.92 82.27,18.82 z M 72.08,18.79 C 72.08,17.93 72.24,17.11 72.57,16.34 72.9,15.57 73.37,14.88 73.99,14.28 74.6,13.69 75.3,13.23 76.09,12.92 76.88,12.6 77.71,12.44 78.58,12.44 79.47,12.44 80.31,12.6 81.1,12.92 81.89,13.23 82.59,13.7 83.22,14.32 83.84,14.93 84.32,15.61 84.64,16.38 84.97,17.15 85.13,17.95 85.13,18.79 85.13,19.67 84.97,20.49 84.65,21.26 84.33,22.02 83.86,22.7 83.24,23.3 82.59,23.92 81.87,24.39 81.08,24.71 80.29,25.04 79.45,25.2 78.58,25.2 77.72,25.2 76.89,25.04 76.1,24.71 75.31,24.39 74.61,23.93 73.99,23.32 73.36,22.7 72.89,22.01 72.56,21.24 72.24,20.48 72.08,19.66 72.08,18.79 z"
     id="path3006"
     inkscape:connector-curvature="0" /><path
     d="M 99.42,19.18 89.94,19.18 C 90.01,20.29 90.34,21.16 90.93,21.78 91.52,22.4 92.31,22.71 93.3,22.71 94.17,22.71 94.9,22.52 95.48,22.16 96.07,21.79 96.58,21.2 97.01,20.38 L 99.3,21.66 C 98.63,22.85 97.81,23.74 96.82,24.32 95.84,24.9 94.68,25.2 93.36,25.2 91.46,25.2 89.94,24.62 88.82,23.46 87.69,22.3 87.13,20.75 87.13,18.82 87.13,16.96 87.71,15.43 88.88,14.24 90.04,13.04 91.53,12.44 93.36,12.44 95.27,12.44 96.75,12.99 97.82,14.08 98.89,15.17 99.42,16.7 99.42,18.67 z M 96.61,17.36 C 96.5,16.51 96.18,15.86 95.63,15.41 95.09,14.97 94.35,14.74 93.41,14.74 92.52,14.74 91.8,14.96 91.26,15.39 90.72,15.83 90.34,16.48 90.12,17.36 z"
     id="path3008"
     inkscape:connector-curvature="0" /><path
     d="M 102.3,24.71 102.3,12.85 104.8,12.85 104.8,14.79 C 105.4,13.98 106,13.38 106.7,13 107.5,12.63 108.4,12.44 109.4,12.44 110.3,12.44 111,12.58 111.7,12.86 112.3,13.14 112.8,13.55 113.1,14.1 113.3,14.43 113.5,14.81 113.6,15.24 113.7,15.68 113.7,16.43 113.7,17.52 L 113.7,24.71 111,24.71 111,18.62 C 111,17.06 110.8,16.02 110.4,15.51 110,15 109.3,14.74 108.4,14.74 107.7,14.74 107.2,14.86 106.7,15.09 106.2,15.33 105.8,15.66 105.5,16.08 105.3,16.36 105.2,16.73 105.1,17.17 105,17.62 105,18.33 105,19.31 L 105,24.71 z"
     id="path3010"
     inkscape:connector-curvature="0" /></g>
<g
   style="fill:#1a1a1a;fill-opacity:1"
   id="pg-Roductions"
   transform="translate(1.541,0.0963)"><path
     d="M 150.8,24.71 150.8,13.28 152.5,13.28 152.5,15.65 C 153.1,14.66 153.6,13.95 154.2,13.53 154.8,13.11 155.5,12.89 156.4,12.89 156.6,12.89 156.8,12.91 157,12.95 157.3,12.99 157.5,13.04 157.7,13.12 L 157,14.88 C 156.8,14.8 156.6,14.75 156.4,14.71 156.2,14.67 156,14.65 155.8,14.65 154.8,14.65 154,15.03 153.5,15.77 153,16.52 152.7,17.64 152.7,19.14 L 152.7,24.71 z"
     id="path3013"
     inkscape:connector-curvature="0" /><path
     d="M 160.9,19.03 C 160.9,20.23 161.3,21.26 162.1,22.09 162.9,22.93 163.9,23.35 165.1,23.35 166.2,23.35 167.2,22.93 168,22.09 168.8,21.26 169.2,20.23 169.2,19.03 169.2,17.82 168.8,16.8 168,15.96 167.2,15.12 166.2,14.7 165.1,14.7 163.9,14.7 162.9,15.12 162.1,15.96 161.3,16.8 160.9,17.82 160.9,19.03 z M 158.8,19.03 C 158.8,18.19 159,17.39 159.3,16.65 159.6,15.9 160.1,15.24 160.7,14.65 161.2,14.07 161.9,13.63 162.7,13.32 163.4,13.02 164.2,12.87 165.1,12.87 165.9,12.87 166.7,13.02 167.4,13.33 168.2,13.64 168.9,14.09 169.5,14.68 170,15.25 170.5,15.91 170.8,16.66 171.1,17.4 171.3,18.19 171.3,19.03 171.3,19.86 171.1,20.64 170.8,21.38 170.5,22.12 170,22.77 169.5,23.35 168.9,23.95 168.2,24.41 167.4,24.72 166.7,25.04 165.9,25.2 165.1,25.2 164.2,25.2 163.4,25.04 162.7,24.73 161.9,24.42 161.2,23.97 160.7,23.39 160.1,22.79 159.6,22.12 159.3,21.39 159,20.65 158.8,19.87 158.8,19.03 z"
     id="path3015"
     inkscape:connector-curvature="0" /><path
     d="M 183,19.05 C 183,17.78 182.7,16.75 182,15.97 181.3,15.19 180.3,14.8 179.2,14.8 178,14.8 177.1,15.16 176.5,15.87 175.8,16.57 175.5,17.55 175.5,18.8 175.5,20.21 175.8,21.31 176.5,22.11 177.1,22.9 178.1,23.3 179.2,23.3 180.4,23.3 181.4,22.92 182,22.17 182.7,21.42 183,20.38 183,19.05 z M 184.9,5.348 184.9,24.71 183,24.71 183,22.64 C 182.6,23.46 182,24.09 181.3,24.54 180.6,24.98 179.8,25.2 178.9,25.2 177.3,25.2 175.9,24.63 174.9,23.5 173.9,22.38 173.4,20.88 173.4,19.03 173.4,17.15 173.9,15.66 174.9,14.54 175.9,13.43 177.2,12.87 178.8,12.87 179.8,12.87 180.6,13.08 181.3,13.51 182,13.94 182.6,14.58 183,15.43 L 183,5.348 z"
     id="path3017"
     inkscape:connector-curvature="0" /><path
     d="M 190.8,13.28 190.8,18.9 C 190.8,20.54 191,21.69 191.5,22.34 192,23 192.8,23.32 194,23.32 195.1,23.32 196,23 196.4,22.36 196.9,21.71 197.2,20.56 197.2,18.9 L 197.2,13.28 199.2,13.28 199.2,19.95 C 199.2,21.67 198.7,22.98 197.8,23.87 196.9,24.75 195.6,25.2 193.9,25.2 192.2,25.2 190.9,24.75 190.1,23.86 189.2,22.97 188.7,21.67 188.7,19.95 L 188.7,13.28 z"
     id="path3019"
     inkscape:connector-curvature="0" /><path
     d="M 211.7,22 211.7,24.27 C 211.2,24.58 210.6,24.81 210,24.97 209.3,25.12 208.6,25.2 207.9,25.2 206.1,25.2 204.7,24.64 203.6,23.52 202.5,22.4 202,20.93 202,19.1 202,17.27 202.5,15.77 203.7,14.61 204.8,13.45 206.2,12.87 207.9,12.87 208.6,12.87 209.2,12.93 209.8,13.07 210.4,13.2 211,13.4 211.5,13.65 L 211.5,15.75 C 211,15.43 210.5,15.18 210,15.01 209.4,14.84 208.9,14.75 208.3,14.75 207.1,14.75 206,15.16 205.2,15.96 204.5,16.76 204.1,17.83 204.1,19.16 204.1,20.34 204.5,21.32 205.3,22.11 206,22.9 207,23.3 208.2,23.3 208.8,23.3 209.4,23.19 209.9,22.99 210.5,22.78 211.1,22.45 211.7,22 z"
     id="path3021"
     inkscape:connector-curvature="0" /><path
     d="M 214.7,14.89 212.6,14.89 212.6,13.28 214.7,13.28 214.7,8.67 216.7,8.67 216.7,13.28 218.8,13.28 218.8,14.89 216.7,14.89 216.7,24.71 214.7,24.71 z"
     id="path3023"
     inkscape:connector-curvature="0" /><path
     d="M 220.7,7.771 C 220.7,7.38 220.9,7.044 221.1,6.765 221.4,6.486 221.8,6.347 222.2,6.347 222.5,6.347 222.9,6.488 223.2,6.772 223.4,7.055 223.6,7.396 223.6,7.796 223.6,8.187 223.4,8.521 223.2,8.795 222.9,9.07 222.5,9.208 222.2,9.208 221.8,9.208 221.4,9.07 221.1,8.795 220.9,8.521 220.7,8.179 220.7,7.771 z M 221.2,24.71 221.2,13.28 223.1,13.28 223.1,24.71 z"
     id="path3025"
     inkscape:connector-curvature="0" /><path
     d="M 228.4,19.03 C 228.4,20.23 228.8,21.26 229.6,22.09 230.4,22.93 231.4,23.35 232.6,23.35 233.7,23.35 234.7,22.93 235.5,22.09 236.3,21.26 236.7,20.23 236.7,19.03 236.7,17.82 236.3,16.8 235.5,15.96 234.7,15.12 233.7,14.7 232.6,14.7 231.4,14.7 230.4,15.12 229.6,15.96 228.8,16.8 228.4,17.82 228.4,19.03 z M 226.3,19.03 C 226.3,18.19 226.5,17.39 226.8,16.65 227.1,15.9 227.6,15.24 228.2,14.65 228.8,14.07 229.4,13.63 230.2,13.32 230.9,13.02 231.7,12.87 232.6,12.87 233.4,12.87 234.2,13.02 234.9,13.33 235.7,13.64 236.4,14.09 237,14.68 237.6,15.25 238,15.91 238.3,16.66 238.6,17.4 238.8,18.19 238.8,19.03 238.8,19.86 238.6,20.64 238.3,21.38 238,22.12 237.6,22.77 237,23.35 236.4,23.95 235.7,24.41 234.9,24.72 234.2,25.04 233.4,25.2 232.6,25.2 231.7,25.2 230.9,25.04 230.2,24.73 229.4,24.42 228.8,23.97 228.2,23.39 227.6,22.79 227.1,22.12 226.8,21.39 226.5,20.65 226.3,19.87 226.3,19.03 z"
     id="path3027"
     inkscape:connector-curvature="0" /><path
     d="M 241.8,24.71 241.8,13.28 243.7,13.28 243.7,15.04 C 244.2,14.31 244.8,13.76 245.5,13.4 246.2,13.05 247,12.87 247.9,12.87 249.2,12.87 250.3,13.23 251.1,13.94 251.8,14.66 252.2,15.65 252.2,16.93 L 252.2,24.71 250.2,24.71 250.2,17.98 C 250.2,16.82 250,15.96 249.5,15.4 249,14.84 248.2,14.55 247.2,14.55 246.6,14.55 246.1,14.66 245.6,14.87 245.1,15.09 244.7,15.39 244.4,15.78 244.2,16.08 244,16.42 243.9,16.8 243.8,17.19 243.7,17.85 243.7,18.8 L 243.7,24.71 z"
     id="path3029"
     inkscape:connector-curvature="0" /><path
     d="M 254.8,22.79 256.5,21.66 C 256.8,22.27 257.2,22.73 257.7,23.03 258.2,23.33 258.8,23.49 259.4,23.49 260.1,23.49 260.6,23.33 261,23.01 261.4,22.69 261.6,22.28 261.6,21.76 261.6,21.36 261.4,21.03 261.2,20.76 260.9,20.5 260.4,20.25 259.8,20.03 L 259.5,19.91 C 256.7,18.96 255.3,17.76 255.3,16.32 255.3,15.3 255.7,14.47 256.4,13.83 257.2,13.19 258.1,12.87 259.3,12.87 260.3,12.87 261.2,13.07 261.9,13.46 262.6,13.86 263.1,14.42 263.4,15.14 L 261.8,16.12 C 261.6,15.59 261.2,15.19 260.8,14.9 260.3,14.62 259.8,14.48 259.2,14.48 258.6,14.48 258.2,14.64 257.8,14.96 257.4,15.28 257.3,15.69 257.3,16.19 257.3,16.89 258,17.48 259.5,17.95 259.8,18.04 260,18.11 260.2,18.16 261.4,18.56 262.3,19.02 262.8,19.53 263.3,20.04 263.5,20.72 263.5,21.56 263.5,22.64 263.1,23.52 262.4,24.19 261.6,24.86 260.6,25.2 259.4,25.2 258.3,25.2 257.4,25 256.6,24.6 255.9,24.2 255.3,23.59 254.8,22.79 z"
     id="path3031"
     inkscape:connector-curvature="0" /></g>
<g
   transform="matrix(1.017,0,0,1,33.12,-5.495)"
   id="pg-Ggroup">
	<g
   id="pg-Gcircle"
   style="fill:#00b03a;fill-opacity:1">
		<ellipse
   style="fill:#00b03a;fill-opacity:1;stroke:none"
   sodipodi:ry="14.17"
   sodipodi:rx="14.17"
   sodipodi:cy="21.83"
   sodipodi:cx="14.17"
   d="M 28.34,21.83 C 28.34,29.66 22,36 14.17,36 6.344,36 0,29.66 0,21.83 0,14 6.344,7.66 14.17,7.66 22,7.66 28.34,14 28.34,21.83 z"
   id="pg-Gellipse"
   ry="14.17"
   rx="14.17"
   cy="21.83"
   cx="14.17" />
	</g>
	<g
   transform="translate(5.197,-5.197)"
   id="pg-Cshape">
		<path
   style="fill:#ffffff;stroke:none"
   inkscape:connector-curvature="0"
   id="pg-Cpath"
   d="M 15.47,27.02 A 6.496,6.496 0 1 1 13.57,22.43 L 15.32,20.68 A 8.976,8.976 -180 1 0 17.95,27.02 L 15.47,27.02 z" />
	</g>
	<g
   transform="translate(14.17,-12.99)"
   id="pg-Gdash">
		<path
   style="fill:#ffffff;stroke:none"
   inkscape:connector-curvature="0"
   id="pg-dashpath"
   d="M 8.5,33.64 7.09,33.64 0,33.64 0,36 8.5,36 8.5,34.82 8.98,34.82 8.98,33.64 8.5,33.64 z" />
	</g>
</g>
<g
   transform="matrix(1.017,0,0,1,119.5,-5.473)"
   id="pg-Pgroup"
   class="pg-Panim">
   <g
   id="pg-Pcircle"
   style="fill:#00b056;fill-opacity:1">
      <ellipse
   style="fill:#00503b;fill-opacity:1;stroke:none"
   sodipodi:ry="14.17"
   sodipodi:rx="14.17"
   sodipodi:cy="21.83"
   sodipodi:cx="14.17"
   d="M 28.34,21.83 C 28.34,29.66 22,36 14.17,36 6.344,36 0,29.66 0,21.83 0,14 6.344,7.66 14.17,7.66 22,7.66 28.34,14 28.34,21.83 z"
   id="pg-Pellipse"
   ry="14.17"
   rx="14.17"
   cy="21.83"
   cx="14.17" />
	</g>
	<g
   transform="translate(5.197,-5.197)"
   id="pg-Oshape">
		<path
   style="fill:#ffffff;stroke:none"
   inkscape:connector-curvature="0"
   id="pg-Opath"
   d="M 15.47,27.02 A 6.496,6.496 0 1 1 2.48,27.02 6.496,6.496 0 1 1 15.47,27.02 z M 17.95,27.02 A 8.976,8.976 -180 1 0 0,27.02 8.976,8.976 -180 1 0 17.95,27.02 z" />
   </g>
   <g
   transform="translate(5.144,-1.417)"
   id="pg-Istick">
		<path
   style="fill:#ffffff;stroke:none"
   inkscape:connector-curvature="0"
   id="pg-Ipath"
   d="M 2.47,15.69 0.11,15.69 0,34.29 2.54,36 2.47,15.69 z" />
   </g>
</g>
</svg>